<svg width="92" height="92" viewBox="0 0 92 92" fill="none" xmlns="http://www.w3.org/2000/svg">
<path d="M92 46C92 71.4051 71.4051 92 46 92C20.5949 92 0 71.4051 0 46C0 20.5949 20.5949 0 46 0C71.4051 0 92 20.5949 92 46Z" fill="black"/>
<path d="M18.3555 46.7578V55.3906H22.1836C24.0195 55.3906 25.3021 55.0781 26.0312 54.4531C26.7734 53.8281 27.1445 52.7409 27.1445 51.1914C27.1445 49.6159 26.7604 48.4831 25.9922 47.793C25.224 47.1029 23.9544 46.7578 22.1836 46.7578H18.3555ZM18.3555 35.3906V42.168H22.1836C23.6419 42.168 24.6771 41.9076 25.2891 41.3867C25.9141 40.8659 26.2266 40.0065 26.2266 38.8086C26.2266 37.6107 25.9076 36.7448 25.2695 36.2109C24.6445 35.6641 23.6159 35.3906 22.1836 35.3906H18.3555ZM12.7891 30.8008H22.1836C25.4258 30.8008 27.8607 31.4193 29.4883 32.6562C31.1289 33.8802 31.9492 35.7161 31.9492 38.1641C31.9492 40.0391 31.4674 41.5039 30.5039 42.5586C29.5404 43.6133 28.1276 44.2253 26.2656 44.3945C28.4922 44.6159 30.1654 45.3646 31.2852 46.6406C32.418 47.9167 32.9844 49.7005 32.9844 51.9922C32.9844 54.8047 32.138 56.8424 30.4453 58.1055C28.7526 59.3685 25.9987 60 22.1836 60H12.7891V30.8008Z" fill="white"/>
<path d="M42.8867 36.0352V54.8047H44.4492C46.7148 54.8047 48.3294 54.0951 49.293 52.6758C50.2565 51.2435 50.7383 48.8151 50.7383 45.3906C50.7383 41.9922 50.2565 39.5833 49.293 38.1641C48.3294 36.7448 46.7148 36.0352 44.4492 36.0352H42.8867ZM37.125 30.8398H43.2969C48.0625 30.8398 51.4935 31.9792 53.5898 34.2578C55.6862 36.5234 56.7344 40.2344 56.7344 45.3906C56.7344 50.5599 55.6862 54.2904 53.5898 56.582C51.4935 58.8607 48.0625 60 43.2969 60H37.125V30.8398Z" fill="white"/>
<path d="M82.6328 63.7109V67.6172H58.5508V63.7109H82.6328Z" fill="white"/>
</svg>
